<svg width="825" height="268" viewBox="0 0 825 268" fill="none" xmlns="http://www.w3.org/2000/svg">
<path d="M180 1.52588e-05L360 1.52588e-05V253H200C188.954 253 180 244.046 180 233V1.52588e-05Z" fill="#FBCE37"/>
<path d="M645 1.52588e-05L825 1.52588e-05V253H665C653.954 253 645 244.046 645 233V1.52588e-05Z" fill="#FBCE37"/>
<path d="M201.5 94C191.06 94 180.722 96.0563 171.077 100.052C161.431 104.047 152.667 109.903 145.285 117.285C137.903 124.667 132.047 133.431 128.052 143.077C124.056 152.722 122 163.06 122 173.5C122 183.94 124.056 194.278 128.052 203.923C132.047 213.569 137.903 222.333 145.285 229.715C152.667 237.097 161.431 242.953 171.077 246.948C180.722 250.944 191.06 253 201.5 253L201.5 213.25C196.28 213.25 191.111 212.222 186.288 210.224C181.466 208.227 177.084 205.299 173.393 201.608C169.701 197.916 166.773 193.534 164.776 188.712C162.778 183.889 161.75 178.72 161.75 173.5C161.75 168.28 162.778 163.111 164.776 158.288C166.773 153.466 169.701 149.084 173.393 145.393C177.084 141.701 181.466 138.773 186.288 136.776C191.111 134.778 196.28 133.75 201.5 133.75V94Z" fill="#6330C6"/>
<path d="M122 173.5C122 183.94 124.056 194.278 128.052 203.923C132.047 213.569 137.903 222.333 145.285 229.715C152.667 237.097 161.431 242.953 171.077 246.948C180.722 250.944 191.06 253 201.5 253L201.5 213.25C196.28 213.25 191.111 212.222 186.288 210.224C181.466 208.227 177.084 205.299 173.393 201.608C169.701 197.916 166.773 193.534 164.776 188.712C162.778 183.889 161.75 178.72 161.75 173.5L122 173.5Z" fill="#F24789"/>
<rect x="108" y="52" width="72" height="45" fill="#6330C6"/>
<rect x="358" y="52" width="72" height="45" fill="#6330C6"/>
<rect x="108" y="1.52588e-05" width="72" height="52" fill="#A07CDF"/>
<rect x="358" y="1.52588e-05" width="72" height="52" fill="#A07CDF"/>
<rect x="180" y="1.52588e-05" width="72" height="97" fill="#189F99"/>
<rect x="645" y="1.52588e-05" width="72" height="97" fill="#189F99"/>
<rect x="430" y="1.52588e-05" width="72" height="97" fill="#189F99"/>
<path d="M0 100C0 44.7715 44.7715 1.52588e-05 100 1.52588e-05L108 1.52588e-05V202C108 231.823 83.8234 256 54 256C24.1766 256 0 231.823 0 202L0 100Z" fill="#FBCE37"/>
<path d="M555 100C555 44.7715 599.772 1.52588e-05 655 1.52588e-05L663 1.52588e-05V202C663 231.823 638.823 256 609 256C579.177 256 555 231.823 555 202V100Z" fill="#FBCE37"/>
<line y1="208" x2="54" y2="208" stroke="white" stroke-width="2"/>
<line x1="555" y1="208" x2="609" y2="208" stroke="white" stroke-width="2"/>
<line x1="5" y1="223" x2="53" y2="223" stroke="white" stroke-width="2" stroke-linecap="round" stroke-linejoin="round"/>
<line x1="560" y1="223" x2="608" y2="223" stroke="white" stroke-width="2" stroke-linecap="round" stroke-linejoin="round"/>
<line x1="15" y1="238" x2="53" y2="238" stroke="white" stroke-width="2" stroke-linecap="round" stroke-linejoin="round"/>
<line x1="570" y1="238" x2="608" y2="238" stroke="white" stroke-width="2" stroke-linecap="round" stroke-linejoin="round"/>
<path fill-rule="evenodd" clip-rule="evenodd" d="M130.82 65.1802C139.259 73.6193 144 85.0653 144 97H108V202C108 231.823 83.8234 256 54 256L54 97V96H54.0111C54.268 84.4275 58.977 73.3834 67.1802 65.1802C75.6193 56.7411 87.0653 52 99 52C110.935 52 122.381 56.7411 130.82 65.1802Z" fill="#189F99"/>
<path fill-rule="evenodd" clip-rule="evenodd" d="M685.82 65.1802C694.259 73.6193 699 85.0653 699 97H663V202C663 231.823 638.823 256 609 256V97V96H609.011C609.268 84.4275 613.977 73.3834 622.18 65.1802C630.619 56.7411 642.065 52 654 52C665.935 52 677.381 56.7411 685.82 65.1802Z" fill="#189F99"/>
<path d="M36 192L36 99C36 70.2812 59.2812 47 88 47V47" stroke="white" stroke-width="2"/>
<path d="M591 192L591 99C591 70.2812 614.281 47 643 47V47" stroke="white" stroke-width="2"/>
<path d="M17 192L17 88C17 54.8629 43.8629 28 77 28L91 28" stroke="white" stroke-width="2"/>
<path d="M572 192L572 88C572 54.8629 598.863 28 632 28L646 28" stroke="white" stroke-width="2"/>
<rect x="216" y="52" width="36" height="8" fill="white"/>
<rect x="216" y="64.5" width="36" height="8" fill="white"/>
<rect x="216" y="77" width="36" height="8" fill="white"/>
<rect x="216" y="89" width="36" height="8" fill="white"/>
<rect x="681" y="52" width="36" height="8" fill="white"/>
<rect x="681" y="64.5" width="36" height="8" fill="white"/>
<rect x="681" y="77" width="36" height="8" fill="white"/>
<rect x="681" y="89" width="36" height="8" fill="white"/>
<path d="M360 97C360 84.2618 357.206 71.6483 351.779 59.8797C346.351 48.1111 338.396 37.4179 328.368 28.4107C318.339 19.4034 306.433 12.2584 293.33 7.3837C280.227 2.50899 266.183 1.4702e-05 252 1.52588e-05L252 97H360Z" fill="#F24789"/>
<path d="M825 97C825 84.2618 822.206 71.6483 816.779 59.8797C811.351 48.1111 803.396 37.4179 793.368 28.4107C783.339 19.4034 771.433 12.2584 758.33 7.3837C745.227 2.50899 731.183 1.4702e-05 717 1.52588e-05L717 97H825Z" fill="#F24789"/>
<path d="M252 194C266.183 194 280.227 191.491 293.33 186.616C306.433 181.742 318.339 174.597 328.368 165.589C338.396 156.582 346.351 145.889 351.779 134.12C357.206 122.352 360 109.738 360 97L252 97L252 194Z" fill="#BD9DF4"/>
<path d="M717 194C731.183 194 745.227 191.491 758.33 186.616C771.433 181.742 783.339 174.597 793.368 165.589C803.396 156.582 811.351 145.889 816.779 134.12C822.206 122.352 825 109.738 825 97L717 97L717 194Z" fill="#BD9DF4"/>
<path d="M360 97C360 84.2618 357.206 71.6483 351.779 59.8797C346.351 48.1111 338.396 37.4179 328.368 28.4107L252 97H360Z" fill="#6330C6"/>
<path d="M825 97C825 84.2618 822.206 71.6483 816.779 59.8797C811.351 48.1111 803.396 37.4179 793.368 28.4107L717 97H825Z" fill="#6330C6"/>
<path d="M337 97V97C337 135.108 306.108 166 268 166L252 166" stroke="white" stroke-width="2"/>
<path d="M802 97V97C802 135.108 771.108 166 733 166L717 166" stroke="white" stroke-width="2"/>
<path d="M312 97V97C312 124.062 290.062 146 263 146L252 146" stroke="white" stroke-width="2"/>
<path d="M777 97V97C777 124.062 755.062 146 728 146L717 146" stroke="white" stroke-width="2"/>
<path d="M288 97V97C288 113.569 274.569 127 258 127L252 127" stroke="white" stroke-width="2"/>
<path d="M753 97V97C753 113.569 739.569 127 723 127L717 127" stroke="white" stroke-width="2"/>
<rect x="180" y="97" width="36" height="48.5" fill="#F24789"/>
<path fill-rule="evenodd" clip-rule="evenodd" d="M197 135.051C195.124 135.148 193.249 135.38 191.391 135.749C183.826 137.254 176.877 140.969 171.423 146.423C165.969 151.877 162.254 158.826 160.749 166.392C159.245 173.957 160.017 181.798 162.969 188.925C165.921 196.051 170.919 202.142 177.333 206.427C183.191 210.342 189.989 212.589 197 212.949V213H199H252V135H199.037C199.012 135 198.987 135 198.963 135H197V135.051Z" fill="#BD9DF4"/>
<path fill-rule="evenodd" clip-rule="evenodd" d="M662 135.051C660.124 135.148 658.249 135.38 656.391 135.749C648.826 137.254 641.877 140.969 636.423 146.423C630.969 151.877 627.254 158.826 625.749 166.392C624.245 173.957 625.017 181.798 627.969 188.925C630.921 196.051 635.919 202.142 642.333 206.427C648.191 210.342 654.989 212.589 662 212.949V213H664H717V135H664.037C664.012 135 663.987 135 663.963 135H662V135.051Z" fill="#BD9DF4"/>
<path d="M160 174C160 179.122 161.009 184.193 162.969 188.925C164.929 193.656 167.801 197.956 171.423 201.577C175.044 205.199 179.344 208.071 184.075 210.031C188.807 211.991 193.878 213 199 213L199 174L160 174Z" fill="#189F99"/>
<rect x="199" y="174" width="53" height="79" fill="white"/>
<rect x="664" y="174" width="53" height="79" fill="white"/>
<line x1="210" y1="180" x2="210" y2="253" stroke="#189F99" stroke-width="2"/>
<line x1="226" y1="180" x2="226" y2="253" stroke="#189F99" stroke-width="2"/>
<line x1="218" y1="180" x2="218" y2="253" stroke="#189F99" stroke-width="2"/>
<line x1="242" y1="180" x2="242" y2="253" stroke="#189F99" stroke-width="2"/>
<line x1="234" y1="180" x2="234" y2="253" stroke="#189F99" stroke-width="2"/>
<line x1="675" y1="180" x2="675" y2="253" stroke="#189F99" stroke-width="2"/>
<line x1="691" y1="180" x2="691" y2="253" stroke="#189F99" stroke-width="2"/>
<line x1="683" y1="180" x2="683" y2="253" stroke="#189F99" stroke-width="2"/>
<line x1="707" y1="180" x2="707" y2="253" stroke="#189F99" stroke-width="2"/>
<line x1="699" y1="180" x2="699" y2="253" stroke="#189F99" stroke-width="2"/>
<line x1="360" y1="209" x2="252" y2="209" stroke="white" stroke-width="2"/>
<line x1="360" y1="225" x2="252" y2="225" stroke="white" stroke-width="2"/>
<line x1="360" y1="217" x2="252" y2="217" stroke="white" stroke-width="2"/>
<line x1="360" y1="241" x2="252" y2="241" stroke="white" stroke-width="2"/>
<line x1="360" y1="233" x2="252" y2="233" stroke="white" stroke-width="2"/>
<line x1="825" y1="209" x2="717" y2="209" stroke="white" stroke-width="2"/>
<line x1="825" y1="225" x2="717" y2="225" stroke="white" stroke-width="2"/>
<line x1="825" y1="217" x2="717" y2="217" stroke="white" stroke-width="2"/>
<line x1="825" y1="241" x2="717" y2="241" stroke="white" stroke-width="2"/>
<line x1="825" y1="233" x2="717" y2="233" stroke="white" stroke-width="2"/>
<path d="M199 174H252V253L199 174Z" fill="#F24789"/>
<path d="M664 174H717V253L664 174Z" fill="#F24789"/>
<rect x="360" y="223" width="161" height="33" fill="#A2EEE2"/>
<rect x="360" y="189" width="161" height="34" fill="#7BE1D1"/>
<g opacity="0.8">
<path d="M0 191H54V256H0L0 191Z" fill="#189F99"/>
<path d="M54 191H108V256H54V191Z" fill="#FBCE37"/>
<line y1="196" x2="54" y2="196" stroke="white" stroke-width="2"/>
<line y1="209" x2="54" y2="209" stroke="white" stroke-width="2"/>
<line y1="222" x2="54" y2="222" stroke="white" stroke-width="2"/>
<line y1="235" x2="54" y2="235" stroke="white" stroke-width="2"/>
<line y1="248" x2="54" y2="248" stroke="white" stroke-width="2"/>
</g>
<path d="M555 191H609V256H555V191Z" fill="#189F99"/>
<path d="M609 191H663V256H609V191Z" fill="#FBCE37"/>
<line x1="555" y1="196" x2="609" y2="196" stroke="white" stroke-width="2"/>
<line x1="555" y1="209" x2="609" y2="209" stroke="white" stroke-width="2"/>
<line x1="555" y1="222" x2="609" y2="222" stroke="white" stroke-width="2"/>
<line x1="555" y1="235" x2="609" y2="235" stroke="white" stroke-width="2"/>
<line x1="555" y1="248" x2="609" y2="248" stroke="white" stroke-width="2"/>
<path d="M608.633 169.02L505.394 169.471L504.747 21.4727L532.986 21.3491C574.407 21.1679 608.132 54.5993 608.313 96.0202L608.633 169.02Z" fill="#FBCE37"/>
<path d="M582.474 187.137L476.475 187.601L475.884 52.6023L507.884 52.4623C548.753 52.2835 582.028 85.2691 582.207 126.138L582.474 187.137Z" fill="#FBCE37" stroke="white" stroke-width="2"/>
<path d="M547.498 192.29L441.499 192.753L441.004 79.7545L473.004 79.6144C513.873 79.4356 547.148 112.421 547.327 153.29L547.498 192.29Z" fill="#FBCE37" stroke="white" stroke-width="2"/>
<path fill-rule="evenodd" clip-rule="evenodd" d="M555 190H393V190.004C384.296 190.134 375.976 193.647 369.812 199.812C363.529 206.094 360 214.615 360 223.5C360 232.385 363.529 240.906 369.812 247.188C375.976 253.353 384.296 256.867 393 256.996V257H393.5H555V190Z" fill="#3DAC9B"/>
<path d="M414 224L433.053 257H394.947L414 224Z" fill="#5BCAB9"/>
<path d="M452 224L471.053 257H432.947L452 224Z" fill="#5BCAB9"/>
<path d="M490 224L509.053 257H470.947L490 224Z" fill="#5BCAB9"/>
<path d="M528 224L547.053 257H508.947L528 224Z" fill="#5BCAB9"/>
<path d="M566 224L585.053 257H546.947L566 224Z" fill="#5BCAB9"/>
<path d="M566 223L546.947 190L585.053 190L566 223Z" fill="#5BCAB9"/>
<path d="M528 223L508.947 190L547.053 190L528 223Z" fill="#5BCAB9"/>
<path d="M490 223L470.947 190L509.053 190L490 223Z" fill="#5BCAB9"/>
<path d="M452 223L432.947 190L471.053 190L452 223Z" fill="#5BCAB9"/>
<path d="M414 223L394.947 190L433.053 190L414 223Z" fill="#5BCAB9"/>
</svg>
