<svg width="24" height="25" viewBox="0 0 24 25" fill="none" xmlns="http://www.w3.org/2000/svg">
<path d="M11.9488 14.5531C8.49884 14.5531 5.58789 15.1168 5.58789 17.2926C5.58789 19.4692 8.51765 20.0132 11.9488 20.0132C15.3988 20.0132 18.3098 19.4494 18.3098 17.2737C18.3098 15.097 15.38 14.5531 11.9488 14.5531Z" fill="#8A92A6"/>
<path opacity="0.4" d="M11.949 12.4802C14.2851 12.4802 16.1583 10.5962 16.1583 8.2467C16.1583 5.89625 14.2851 4.01318 11.949 4.01318C9.61293 4.01318 7.73975 5.89625 7.73975 8.2467C7.73975 10.5962 9.61293 12.4802 11.949 12.4802Z" fill="#8A92A6"/>
<path opacity="0.4" d="M21.0881 9.23247C21.6925 6.85501 19.9205 4.71979 17.664 4.71979C17.4187 4.71979 17.1841 4.7468 16.9549 4.79273C16.9244 4.79994 16.8904 4.81525 16.8725 4.84226C16.8519 4.87648 16.8671 4.92241 16.8895 4.95213C17.5673 5.90852 17.9568 7.07294 17.9568 8.32291C17.9568 9.52065 17.5996 10.6373 16.9728 11.564C16.9083 11.6595 16.9656 11.7883 17.0793 11.8081C17.2369 11.836 17.3981 11.8504 17.5629 11.8549C19.2059 11.8981 20.6807 10.8346 21.0881 9.23247Z" fill="#8A92A6"/>
<path d="M22.8094 14.8301C22.5086 14.1853 21.7824 13.7432 20.6783 13.5261C20.1572 13.3983 18.747 13.2181 17.4352 13.2425C17.4155 13.2452 17.4048 13.2587 17.403 13.2677C17.4003 13.2803 17.4057 13.3019 17.4316 13.3154C18.0378 13.6171 20.3811 14.9292 20.0865 17.6966C20.074 17.8164 20.1698 17.9199 20.2888 17.9019C20.8655 17.8191 22.3492 17.4985 22.8094 16.4998C23.0637 15.972 23.0637 15.3588 22.8094 14.8301Z" fill="#8A92A6"/>
<path opacity="0.4" d="M7.04459 4.79298C6.81626 4.74615 6.58077 4.72003 6.33543 4.72003C4.07901 4.72003 2.30701 6.85525 2.9123 9.23272C3.31882 10.8348 4.79355 11.8984 6.43661 11.8551C6.60136 11.8506 6.76343 11.8353 6.92013 11.8083C7.03384 11.7885 7.09115 11.6597 7.02668 11.5643C6.3999 10.6367 6.04263 9.5209 6.04263 8.32316C6.04263 7.07228 6.43303 5.90787 7.11085 4.95238C7.13234 4.92266 7.14845 4.87673 7.12696 4.84251C7.10906 4.81459 7.07593 4.80018 7.04459 4.79298Z" fill="#8A92A6"/>
<path d="M3.32156 13.5258C2.21752 13.7429 1.49225 14.185 1.19139 14.8298C0.936203 15.3585 0.936203 15.9717 1.19139 16.5004C1.65163 17.4982 3.13531 17.8197 3.71195 17.9016C3.83104 17.9196 3.92595 17.817 3.91342 17.6963C3.61883 14.9298 5.9621 13.6177 6.56918 13.316C6.59425 13.3016 6.59962 13.2809 6.59694 13.2674C6.59515 13.2584 6.5853 13.2448 6.5656 13.243C5.25294 13.2178 3.84358 13.3979 3.32156 13.5258Z" fill="#8A92A6"/>
</svg>
