<svg width="32" height="32" viewBox="0 0 32 32" fill="none" xmlns="http://www.w3.org/2000/svg">
<path d="M16 12C17.1 12 18 11.1 18 10C18 8.9 17.1 8 16 8C14.9 8 14 8.9 14 10C14 11.1 14.9 12 16 12ZM16 14C14.9 14 14 14.9 14 16C14 17.1 14.9 18 16 18C17.1 18 18 17.1 18 16C18 14.9 17.1 14 16 14ZM16 20C14.9 20 14 20.9 14 22C14 23.1 14.9 24 16 24C17.1 24 18 23.1 18 22C18 20.9 17.1 20 16 20Z" fill="#D4D4D4"/>
<path d="M23.35 14.04C22.67 10.59 19.64 8 16 8C13.11 8 10.6 9.64 9.35 12.04C6.34 12.36 4 14.91 4 18C4 21.31 6.69 24 10 24H23C25.76 24 28 21.76 28 19C28 16.36 25.95 14.22 23.35 14.04ZM21 17L16.35 21.65C16.15 21.85 15.84 21.85 15.64 21.65L11 17H14V13H18V17H21Z" fill="#007AFF"/>
</svg>
