<svg width="25" height="24" viewBox="0 0 25 24" fill="none" xmlns="http://www.w3.org/2000/svg">
<path opacity="0.4" d="M22.5 15.9402C22.5 18.7302 20.26 20.9902 17.47 21.0002H17.46H7.55C4.77 21.0002 2.5 18.7502 2.5 15.9602V15.9502C2.5 15.9502 2.506 11.5242 2.514 9.29818C2.515 8.88018 2.995 8.64618 3.322 8.90618C5.698 10.7912 9.947 14.2282 10 14.2732C10.71 14.8422 11.61 15.1632 12.53 15.1632C13.45 15.1632 14.35 14.8422 15.06 14.2622C15.113 14.2272 19.267 10.8932 21.679 8.97718C22.007 8.71618 22.489 8.95018 22.49 9.36718C22.5 11.5762 22.5 15.9402 22.5 15.9402Z" fill="#8A92A6"/>
<path d="M21.9761 5.67357C21.1101 4.04157 19.4061 2.99957 17.5301 2.99957H7.55013C5.67413 2.99957 3.97013 4.04157 3.10413 5.67357C2.91013 6.03857 3.00213 6.49357 3.32513 6.75157L10.7501 12.6906C11.2701 13.1106 11.9001 13.3196 12.5301 13.3196C12.5341 13.3196 12.5371 13.3196 12.5401 13.3196C12.5431 13.3196 12.5471 13.3196 12.5501 13.3196C13.1801 13.3196 13.8101 13.1106 14.3301 12.6906L21.7551 6.75157C22.0781 6.49357 22.1701 6.03857 21.9761 5.67357Z" fill="#8A92A6"/>
</svg>
