<svg width="25" height="24" viewBox="0 0 25 24" fill="none" xmlns="http://www.w3.org/2000/svg">
<path d="M20.2695 11.6453C19.539 10.7923 19.2071 10.0531 19.2071 8.79716V8.37013C19.2071 6.73354 18.8304 5.67907 18.0115 4.62459C16.7493 2.98699 14.6244 2 12.5442 2H12.4558C10.4194 2 8.36106 2.94167 7.077 4.5128C6.21333 5.58842 5.79293 6.68822 5.79293 8.37013V8.79716C5.79293 10.0531 5.48284 10.7923 4.73049 11.6453C4.17691 12.2738 4 13.0815 4 13.9557C4 14.8309 4.28723 15.6598 4.86367 16.3336C5.61602 17.1413 6.67846 17.6569 7.76375 17.7466C9.33505 17.9258 10.9063 17.9933 12.5005 17.9933C14.0937 17.9933 15.665 17.8805 17.2372 17.7466C18.3215 17.6569 19.384 17.1413 20.1363 16.3336C20.7118 15.6598 21 14.8309 21 13.9557C21 13.0815 20.8231 12.2738 20.2695 11.6453Z" fill="#8A92A6"/>
<path opacity="0.4" d="M14.5088 19.2284C14.0088 19.1216 10.9627 19.1216 10.4627 19.2284C10.0354 19.3271 9.57324 19.5567 9.57324 20.0603C9.59809 20.5407 9.87935 20.9647 10.2689 21.2336L10.268 21.2346C10.7718 21.6274 11.3632 21.8771 11.9824 21.9668C12.3123 22.0121 12.6482 22.0101 12.9901 21.9668C13.6083 21.8771 14.1997 21.6274 14.7036 21.2346L14.7026 21.2336C15.0922 20.9647 15.3734 20.5407 15.3983 20.0603C15.3983 19.5567 14.9361 19.3271 14.5088 19.2284Z" fill="#8A92A6"/>
</svg>
