<svg width="24" height="25" viewBox="0 0 24 25" fill="none" xmlns="http://www.w3.org/2000/svg">
<path d="M12.0122 14.8433C10.4077 14.8433 9.10986 13.5933 9.10986 12.0233C9.10986 10.4533 10.4077 9.19327 12.0122 9.19327C13.6167 9.19327 14.8839 10.4533 14.8839 12.0233C14.8839 13.5933 13.6167 14.8433 12.0122 14.8433Z" fill="#8A92A6"/>
<path opacity="0.4" d="M21.2301 14.3833C21.036 14.0833 20.76 13.7833 20.4023 13.5933C20.1162 13.4533 19.9322 13.2233 19.7687 12.9533C19.2475 12.0933 19.5541 10.9633 20.4228 10.4533C21.4447 9.88327 21.7718 8.61328 21.179 7.62328L20.4943 6.44327C19.9118 5.45327 18.6344 5.10328 17.6226 5.68328C16.7233 6.16328 15.5685 5.84328 15.0473 4.99328C14.8838 4.71328 14.7918 4.41328 14.8122 4.11328C14.8429 3.72328 14.7203 3.35328 14.5363 3.05328C14.1582 2.43328 13.4735 2.01328 12.7172 2.01328H11.2763C10.5302 2.03328 9.84553 2.43328 9.4674 3.05328C9.27323 3.35328 9.16081 3.72328 9.18125 4.11328C9.20169 4.41328 9.10972 4.71328 8.9462 4.99328C8.425 5.84328 7.27019 6.16328 6.38109 5.68328C5.35913 5.10328 4.09191 5.45327 3.49917 6.44327L2.81446 7.62328C2.23194 8.61328 2.55897 9.88327 3.57071 10.4533C4.43937 10.9633 4.74596 12.0933 4.23498 12.9533C4.06125 13.2233 3.87729 13.4533 3.59115 13.5933C3.24368 13.7833 2.93709 14.0833 2.77358 14.3833C2.39546 15.0033 2.4159 15.7833 2.79402 16.4333L3.49917 17.6333C3.87729 18.2733 4.58245 18.6733 5.31825 18.6733C5.66572 18.6733 6.0745 18.5733 6.40153 18.3733C6.65702 18.2033 6.96361 18.1433 7.30085 18.1433C8.31259 18.1433 9.16081 18.9733 9.18125 19.9633C9.18125 21.1133 10.1215 22.0133 11.3069 22.0133H12.6968C13.872 22.0133 14.8122 21.1133 14.8122 19.9633C14.8429 18.9733 15.6911 18.1433 16.7029 18.1433C17.0299 18.1433 17.3365 18.2033 17.6022 18.3733C17.9292 18.5733 18.3278 18.6733 18.6855 18.6733C19.411 18.6733 20.1162 18.2733 20.4943 17.6333L21.2097 16.4333C21.5776 15.7633 21.6083 15.0033 21.2301 14.3833Z" fill="#8A92A6"/>
</svg>
