<svg width="24" height="25" viewBox="0 0 24 25" fill="none" xmlns="http://www.w3.org/2000/svg">
<path opacity="0.4" d="M21.25 13.4896C20.429 13.4896 19.761 12.8277 19.761 12.0142C19.761 11.1997 20.429 10.5378 21.25 10.5378C21.449 10.5378 21.64 10.4595 21.78 10.3208C21.921 10.1811 22 9.99183 22 9.79464L21.999 7.11733C21.999 4.85421 20.14 3.01318 17.856 3.01318H6.144C3.86 3.01318 2.001 4.85421 2.001 7.11733L2 9.88085C2 10.078 2.079 10.2673 2.22 10.407C2.36 10.5457 2.551 10.624 2.75 10.624C3.599 10.624 4.239 11.2215 4.239 12.0142C4.239 12.8277 3.571 13.4896 2.75 13.4896C2.336 13.4896 2 13.8225 2 14.2327V16.908C2 19.1712 3.858 21.0132 6.143 21.0132H17.857C20.142 21.0132 22 19.1712 22 16.908V14.2327C22 13.8225 21.664 13.4896 21.25 13.4896Z" fill="#8A92A6"/>
<path d="M15.4303 11.6018L14.2513 12.7498L14.5303 14.3728C14.5783 14.6538 14.4653 14.9308 14.2343 15.0968C14.0053 15.2648 13.7063 15.2858 13.4543 15.1518L11.9993 14.3868L10.5413 15.1528C10.4333 15.2098 10.3153 15.2398 10.1983 15.2398C10.0453 15.2398 9.89434 15.1918 9.76434 15.0978C9.53434 14.9308 9.42134 14.6538 9.46934 14.3728L9.74734 12.7498L8.56834 11.6018C8.36434 11.4038 8.29334 11.1128 8.38134 10.8418C8.47034 10.5718 8.70034 10.3798 8.98134 10.3398L10.6073 10.1028L11.3363 8.62581C11.4633 8.37181 11.7173 8.21381 11.9993 8.21381H12.0013C12.2843 8.21481 12.5383 8.37281 12.6633 8.62681L13.3923 10.1028L15.0213 10.3408C15.2993 10.3798 15.5293 10.5718 15.6173 10.8418C15.7063 11.1128 15.6353 11.4038 15.4303 11.6018Z" fill="white"/>
</svg>
